<svg width="38" height="50" viewBox="0 0 38 50" fill="none" xmlns="http://www.w3.org/2000/svg">
<path d="M16.9552 46H7.34256V23.9904L3 7.10962L19.6957 4L35 10.2192L25.7246 23.9904L22.2675 44.2865L16.9552 46Z" fill="#150802"/>
<path d="M16.9552 46H7.34256V23.9904L3 7.10962L19.6957 4M16.9552 46L22.2675 44.2865L25.7246 23.9904L35 10.2192L19.6957 4M16.9552 46V23.9904L19.6957 4" stroke="#150802"/>
<path d="M25.5 11.0001C25.5 11.2762 24.5523 12 24 12C23.4477 12 23 11.7762 23 11.5C23 11.2239 23.4477 11 24 11C24.5523 11 25.5 10.7239 25.5 11.0001Z" fill="white"/>
<path d="M22.9153 14.7017C22.9153 14.9778 22.5523 15 22 15C21.4477 15 22 14.7761 22 14.5C22 14.2239 21.3631 14.2017 21.9153 14.2017C22.4676 14.2017 22.9153 14.4255 22.9153 14.7017Z" fill="white"/>
<path d="M26 19C26 19.2762 25.5523 19.5 25 19.5C24.4477 19.5 24 19.7762 24 19.5001C24 19.2239 24.4477 19.0001 25 19.0001C25.5523 19.0001 26 18.7239 26 19Z" fill="white"/>
<path d="M22 22.5C22 22.7761 21.5523 23 21 23C20.4477 23 20 22.7761 20 22.5C20 22.2239 20.9477 22 21.5 22C22.0523 22 22 22.2239 22 22.5Z" fill="white"/>
<path d="M23.5 26.5C23.5 26.7761 23.5523 27 23 27C22.4477 27 22.5 26.7761 22.5 26.5C22.5 26.2239 22.5 26.5 23 26C23.5523 26 23.5 26.2239 23.5 26.5Z" fill="white"/>
<path d="M21.5 30C21.5 30.2761 20.5523 30.9999 20 30.9999C19.4477 30.9999 19 30.7761 19 30.4999C19 30.2238 19.9477 30.4999 20.5 30.4999C21.0523 30.4999 21.5 29.7238 21.5 30Z" fill="white"/>
<path d="M24 34.5C24 34.7761 24.0522 35 23.5 35C22.9477 35 23 34.7762 23 34.5C23.5 34.5 22.9477 34.5 23.5 34.5C23.7073 34.5 23.5 34.5 24 34.5Z" fill="white"/>
<path d="M20.9445 36.6647C20.9445 36.9408 20.4968 37.1647 19.9445 37.1647C19.3922 37.1647 18.9445 36.9408 18.9445 36.6647C18.9445 36 19.3922 36.1647 19.9445 36.1647C20.4968 36.1647 20.1721 36.6647 20.9445 36.6647Z" fill="white"/>
<path d="M21 39.5C21 39.7762 20.7761 40 20.5 40C20.2239 40 20 39.7762 20 39.5C20 39.2239 20.2239 39.5001 20.5 39.5001C20.7761 39.5001 21 39.2239 21 39.5Z" fill="white"/>
<path d="M23 41.7012C23 41.3139 22.7807 41 22.5102 41C22.2397 41 22.0204 41.3139 22.0204 41.7012C21.915 42.3735 22.2397 41.7012 22.5102 41.7012C22.7807 41.7012 22.6497 41.6723 23 41.7012Z" fill="white"/>
<path d="M21.5 43.5C21.5 43.7761 21.5523 43.5 21 43.5C20.4477 43.5 20 43.7761 20 43.5C20 43.2239 20.4477 43 21 43C21.5523 43 21.5 43.2239 21.5 43.5Z" fill="white"/>
</svg>
